<svg width="32" height="32" viewBox="0 0 32 32" fill="none" xmlns="http://www.w3.org/2000/svg">
<path opacity="0.2" d="M11 20C14.5899 20 17.5 17.0899 17.5 13.5C17.5 9.91015 14.5899 7 11 7C7.41015 7 4.5 9.91015 4.5 13.5C4.5 17.0899 7.41015 20 11 20Z" fill="#6148FF"/>
<path d="M11 20C14.5899 20 17.5 17.0899 17.5 13.5C17.5 9.91015 14.5899 7 11 7C7.41015 7 4.5 9.91015 4.5 13.5C4.5 17.0899 7.41015 20 11 20Z" stroke="#6148FF" stroke-width="2" stroke-miterlimit="10"/>
<path d="M19.4263 7.24215C20.3203 6.99026 21.2579 6.93287 22.176 7.07386C23.0941 7.21486 23.9713 7.55095 24.7485 8.0595C25.5257 8.56805 26.185 9.23726 26.6818 10.022C27.1786 10.8068 27.5015 11.689 27.6287 12.6091C27.7559 13.5291 27.6845 14.4658 27.4192 15.3559C27.1539 16.2461 26.7009 17.069 26.0908 17.7694C25.4807 18.4697 24.7276 19.0312 23.8822 19.416C23.0368 19.8008 22.1188 19.9999 21.19 20" stroke="#6148FF" stroke-width="2" stroke-linecap="round" stroke-linejoin="round"/>
<path d="M1.99951 24.6746C3.01468 23.2306 4.36238 22.052 5.92882 21.2384C7.49527 20.4248 9.23448 20.0001 10.9996 20C12.7648 19.9999 14.504 20.4246 16.0705 21.238C17.637 22.0515 18.9848 23.23 20.0001 24.6739" stroke="#6148FF" stroke-width="2" stroke-linecap="round" stroke-linejoin="round"/>
<path d="M21.1904 20C22.9557 19.9987 24.6953 20.4228 26.262 21.2364C27.8286 22.05 29.1761 23.2291 30.1905 24.6739" stroke="#6148FF" stroke-width="2" stroke-linecap="round" stroke-linejoin="round"/>
</svg>
